<svg xmlns="http://www.w3.org/2000/svg" xmlns:xlink="http://www.w3.org/1999/xlink" width="576" height="324" version="1.1" viewBox="0 0 576 324"><title>onchange_immutable</title><description>Created with Sketch (http://www.bohemiancoding.com/sketch)</description><g id="immutable" fill="none" fill-rule="evenodd" stroke="none" stroke-width="1"><path id="Line" stroke="#417505" stroke-linecap="square" d="M52.5,120.5 L33.5,109.5"/><path id="Line" stroke="#417505" stroke-linecap="square" d="M35.5,154.5 L56,130"/><path id="Line" stroke="#417505" stroke-linecap="square" d="M44.5,166.5 L72.5,192.5"/><path id="Line" stroke="#417505" stroke-linecap="square" d="M98.5,132.5 L62.5,125.5"/><circle id="Oval-1" cx="25.5" cy="105.5" r="11.5" fill="#B8E986" stroke="#417505"/><circle id="Oval-1" cx="36.5" cy="159.5" r="11.5" fill="#B8E986" stroke="#417505"/><circle id="Oval-1" cx="71.5" cy="190.5" r="11.5" fill="#D0011B" stroke="#417505"/><circle id="Oval-1" cx="59.5" cy="123.5" r="11.5" fill="#D8D8D8" stroke="#979797"/><circle id="Oval-1" cx="59.5" cy="123.5" r="11.5" fill="#B8E986" stroke="#417505"/><circle id="Oval-1" cx="101.5" cy="135.5" r="11.5" fill="#B8E986" stroke="#417505"/><path id="Oval-7" fill="#FFFEF0" stroke="#D4D4D4" d="M220,137 C258.659934,137 290,106.555365 290,69 C290,31.4446352 258.659934,1 220,1 C181.340066,1 150,31.4446352 150,69 C150,106.555365 181.340066,137 220,137 Z"/><path id="Oval-7" fill="#FFFEF0" stroke="#D4D4D4" d="M220,300 C258.659934,300 290,269.555365 290,232 C290,194.444635 258.659934,164 220,164 C181.340066,164 150,194.444635 150,232 C150,269.555365 181.340066,300 220,300 Z"/><path id="Line" stroke="#417505" stroke-linecap="square" d="M502.5,93.5 L472.5,122.5"/><path id="Line" stroke="#417505" stroke-linecap="square" d="M501.5,92.5 L535.5,123.5"/><path id="Line" stroke="#417505" stroke-linecap="square" d="M471.5,142.5 L442.5,169.5"/><path id="Line" stroke="#417505" stroke-linecap="square" d="M472.5,140.5 L503.5,169.5"/><path id="Line" stroke="#417505" stroke-linecap="square" d="M503.5,188.5 L503.5,220.5"/><rect id="Rectangle-1" width="43" height="24" x="480" y="72" fill="#B8E986" stroke="#417505"/><rect id="Rectangle-1" width="43" height="24" x="451" y="121" fill="#B8E986" stroke="#417505"/><rect id="Rectangle-1" width="43" height="24" x="511" y="121" fill="#B8E986" stroke="#417505"/><rect id="Rectangle-1" width="43" height="24" x="421" y="168" fill="#D0011B" stroke="#417505"/><rect id="Rectangle-1" width="43" height="24" x="480" y="168" fill="#B8E986" stroke="#417505"/><rect id="Rectangle-1" width="43" height="24" x="480" y="214" fill="#B8E986" stroke="#417505"/><path id="Line" stroke="#7ED321" stroke-linecap="square" d="M223.677419,24.3333333 L204.322581,43.6666667"/><path id="Line" stroke="#7ED321" stroke-linecap="square" d="M223.328571,23.34375 L245.671429,44.65625"/><path id="Line" stroke="#7ED321" stroke-linecap="square" d="M203.683333,57.3392857 L185.316667,75.6607143"/><path id="Line" stroke="#7ED321" stroke-linecap="square" d="M204.328125,56.3333333 L224.671875,75.6666667"/><path id="Line" stroke="#7ED321" stroke-linecap="square" d="M224.5,88.3333333 L224.5,109.666667"/><rect id="Rectangle-1" width="27" height="17" x="210" y="10" fill="#EDFFDA" stroke="#7ED321"/><rect id="Rectangle-1" width="27" height="17" x="191" y="43" fill="#EDFFDA" stroke="#7ED321"/><rect id="Rectangle-1" width="27" height="17" x="230" y="43" fill="#0CB5E9" stroke="#7ED321"/><rect id="Rectangle-1" width="27" height="17" x="172" y="75" fill="#EDFFDA" stroke="#7ED321"/><rect id="Rectangle-1" width="27" height="17" x="210" y="75" fill="#0CB5E9" stroke="#7ED321"/><rect id="Rectangle-1" width="27" height="17" x="210" y="106" fill="#0CB5E9" stroke="#7ED321"/><path id="Line" stroke="#7ED321" stroke-linecap="square" d="M222.677419,190.333333 L203.322581,209.666667"/><path id="Line" stroke="#7ED321" stroke-linecap="square" d="M222.328571,189.34375 L244.671429,210.65625"/><path id="Line" stroke="#7ED321" stroke-linecap="square" d="M202.683333,223.339286 L184.316667,241.660714"/><path id="Line" stroke="#7ED321" stroke-linecap="square" d="M203.328125,222.333333 L223.671875,241.666667"/><path id="Line" stroke="#7ED321" stroke-linecap="square" d="M223.5,254.333333 L223.5,275.666667"/><rect id="Rectangle-1" width="27" height="17" x="209" y="176" fill="#EDFFDA" stroke="#7ED321"/><rect id="Rectangle-1" width="27" height="17" x="190" y="209" fill="#EDFFDA" stroke="#7ED321"/><rect id="Rectangle-1" width="27" height="17" x="229" y="209" fill="#0CB5E9" stroke="#7ED321"/><rect id="Rectangle-1" width="27" height="17" x="171" y="241" fill="#D0011B" stroke="#7ED321"/><rect id="Rectangle-1" width="27" height="17" x="322" y="144" fill="#D0011B" stroke="#7ED321"/><path id="Line" fill="#D0011B" stroke="#D0011B" stroke-linecap="square" d="M276.5,110.5 L321.5,142.5"/><path id="Line-decoration-1" fill="#D0011B" stroke="#D0011B" stroke-linecap="square" d="M321.322543,142.373808 C318.850512,139.327505 316.731628,136.716389 314.259597,133.670085 C313.042597,135.381492 311.999454,136.848411 310.782454,138.559817 C314.471485,139.894714 317.633512,141.038912 321.322543,142.373808 C321.322543,142.373808 321.322543,142.373808 321.322543,142.373808 Z"/><path id="Line" fill="#D0011B" stroke="#D0011B" stroke-linecap="square" d="M276.5,189.5 L322.5,161.5"/><path id="Line-decoration-1" fill="#D0011B" stroke="#D0011B" stroke-linecap="square" d="M321.772525,161.942811 C317.99771,163.011302 314.762154,163.927151 310.987339,164.995642 C312.079228,166.789459 313.015132,168.327017 314.107021,170.120834 C316.789947,167.258526 319.089598,164.805119 321.772525,161.942811 C321.772525,161.942811 321.772525,161.942811 321.772525,161.942811 Z"/><rect id="Rectangle-1" width="27" height="17" x="209" y="241" fill="#0CB5E9" stroke="#7ED321"/><rect id="Rectangle-1" width="27" height="17" x="209" y="272" fill="#0CB5E9" stroke="#7ED321"/><text id="Model" fill="#000" font-family="Helvetica" font-size="12" font-weight="normal"><tspan x="73" y="104">Model</tspan></text><text id="Virtual-DOM" fill="#000" font-family="Helvetica" font-size="12" font-weight="normal"><tspan x="188" y="323">Virtual DOM</tspan></text><text id="Diff" fill="#000" font-family="Helvetica" font-size="12" font-weight="normal"><tspan x="289" y="154">Diff</tspan></text><text id="Reuse" fill="#000" font-family="Helvetica" font-size="12" font-weight="normal"><tspan x="242" y="89">Reuse</tspan></text><text id="Patch" fill="#000" font-family="Helvetica" font-size="12" font-weight="normal"><tspan x="374" y="156">Patch</tspan></text><text id="DOM" fill="#000" font-family="Helvetica" font-size="12" font-weight="normal"><tspan x="548" y="185">DOM</tspan></text><path id="Line" stroke="#D4D4D4" stroke-linecap="square" d="M193.5,4.5 L1.5,101.5"/><path id="Line" stroke="#D4D4D4" stroke-linecap="square" d="M259.5,126.5 L44.5,216.5"/><path id="Line" stroke="#D4D4D4" stroke-linecap="square" d="M237.5,166.5 L17.5,87.5"/><path id="Line" stroke="#D4D4D4" stroke-linecap="square" d="M189.5,294.5 L0.5,161.5"/><path id="Line" fill="#D0011B" stroke="#D0011B" stroke-linecap="square" d="M349.5,152.5 L420.5,180.5"/><path id="Line-decoration-1" fill="#D0011B" stroke="#D0011B" stroke-linecap="square" d="M420.200744,180.381984 C417.069524,178.018435 414.385621,175.992537 411.254401,173.628988 C410.483978,175.582561 409.823615,177.257053 409.053192,179.210626 C412.954835,179.620601 416.299101,179.972008 420.200744,180.381984 C420.200744,180.381984 420.200744,180.381984 420.200744,180.381984 Z"/><path id="Line" stroke="#979797" stroke-linecap="square" d="M256,217 C256,217 293,126.470437 293,98.3019579 C293,71.6669237 256,58.5195312 256,58.5195312"/><path id="Line-decoration-1" stroke="#979797" stroke-linecap="square" d="M263.086923,207.319482 C260.724128,210.45158 258.685473,213.142897 256.297829,216.267157 C256.735289,212.363934 257.097966,209.015979 257.501281,205.128456"/><path id="Line" stroke="#979797" stroke-linecap="square" d="M233.46875,244.246094 C233.46875,244.246094 258,198.029315 258,160.019543 C258,122.009772 233.46875,91.8554688 233.46875,91.8554688"/><path id="Line-decoration-1" stroke="#979797" stroke-linecap="square" d="M241.246232,235.036042 C238.689125,238.065262 236.472476,240.610169 233.834564,243.542556 C234.584707,239.690209 235.160808,236.403641 235.782707,232.556144"/><path id="Line" stroke="#979797" stroke-linecap="square" d="M236.5,123.070312 C236.5,123.070312 275.152344,169.421875 275.152344,210.347656 C275.152344,251.273437 236.5,277.476562 236.5,277.476562"/><path id="Line-decoration-1" stroke="#979797" stroke-linecap="square" d="M243.129317,268.220857 C241.045188,271.454141 239.159134,274.169586 236.788899,277.275353 C240.465238,275.813998 243.569927,274.42663 247.171233,272.655146"/></g></svg>